<mxfile host="app.diagrams.net" modified="2023-07-03T22:12:49.639Z" agent="Mozilla/5.0 (Windows NT 10.0; Win64; x64) AppleWebKit/537.36 (KHTML, like Gecko) Chrome/114.0.0.0 Safari/537.36 Edg/114.0.1823.67" etag="khJ3yLBG0Ot-Q7QjLsxe" version="21.5.0" type="google">
  <diagram name="PÃ¡gina-1" id="oNmrB0RrOVJhqcpIim8l">
    <mxGraphModel dx="979" dy="740" grid="1" gridSize="10" guides="1" tooltips="1" connect="1" arrows="1" fold="1" page="1" pageScale="1" pageWidth="827" pageHeight="1169" math="0" shadow="0">
      <root>
        <mxCell id="0" />
        <mxCell id="1" parent="0" />
        <mxCell id="EvMouN0lqne2JPCb9NKy-1" value="Secretaria" style="swimlane;fontStyle=1;align=center;verticalAlign=top;childLayout=stackLayout;horizontal=1;startSize=26;horizontalStack=0;resizeParent=1;resizeParentMax=0;resizeLast=0;collapsible=1;marginBottom=0;whiteSpace=wrap;html=1;" vertex="1" parent="1">
          <mxGeometry x="330" y="400" width="200" height="164" as="geometry" />
        </mxCell>
        <mxCell id="EvMouN0lqne2JPCb9NKy-3" value="" style="line;strokeWidth=1;fillColor=none;align=left;verticalAlign=middle;spacingTop=-1;spacingLeft=3;spacingRight=3;rotatable=0;labelPosition=right;points=[];portConstraint=eastwest;strokeColor=inherit;" vertex="1" parent="EvMouN0lqne2JPCb9NKy-1">
          <mxGeometry y="26" width="200" height="8" as="geometry" />
        </mxCell>
        <mxCell id="EvMouN0lqne2JPCb9NKy-4" value="&lt;br&gt;+ Secretaria ()&lt;br&gt;&lt;br&gt;+ carregarAgendas(): void&lt;br&gt;&lt;br&gt;+ getter(): type&lt;br&gt;&lt;br&gt;+ setter():&amp;nbsp;" style="text;strokeColor=none;fillColor=none;align=left;verticalAlign=top;spacingLeft=4;spacingRight=4;overflow=hidden;rotatable=0;points=[[0,0.5],[1,0.5]];portConstraint=eastwest;whiteSpace=wrap;html=1;" vertex="1" parent="EvMouN0lqne2JPCb9NKy-1">
          <mxGeometry y="34" width="200" height="130" as="geometry" />
        </mxCell>
        <mxCell id="EvMouN0lqne2JPCb9NKy-5" value="Paciente" style="swimlane;fontStyle=1;align=center;verticalAlign=top;childLayout=stackLayout;horizontal=1;startSize=26;horizontalStack=0;resizeParent=1;resizeParentMax=0;resizeLast=0;collapsible=1;marginBottom=0;whiteSpace=wrap;html=1;" vertex="1" parent="1">
          <mxGeometry x="60" y="400" width="200" height="298" as="geometry" />
        </mxCell>
        <mxCell id="EvMouN0lqne2JPCb9NKy-6" value="&lt;br style=&quot;border-color: var(--border-color);&quot;&gt;&lt;br style=&quot;border-color: var(--border-color);&quot;&gt;&lt;br style=&quot;border-color: var(--border-color);&quot;&gt;- dataPrimeiraConsulta: Date&lt;br style=&quot;border-color: var(--border-color);&quot;&gt;- email: String&lt;br style=&quot;border-color: var(--border-color);&quot;&gt;-&amp;nbsp;convenio: Boolean&lt;br style=&quot;border-color: var(--border-color);&quot;&gt;-&amp;nbsp;planoSaude:String" style="text;strokeColor=none;fillColor=none;align=left;verticalAlign=top;spacingLeft=4;spacingRight=4;overflow=hidden;rotatable=0;points=[[0,0.5],[1,0.5]];portConstraint=eastwest;whiteSpace=wrap;html=1;" vertex="1" parent="EvMouN0lqne2JPCb9NKy-5">
          <mxGeometry y="26" width="200" height="134" as="geometry" />
        </mxCell>
        <mxCell id="EvMouN0lqne2JPCb9NKy-7" value="" style="line;strokeWidth=1;fillColor=none;align=left;verticalAlign=middle;spacingTop=-1;spacingLeft=3;spacingRight=3;rotatable=0;labelPosition=right;points=[];portConstraint=eastwest;strokeColor=inherit;" vertex="1" parent="EvMouN0lqne2JPCb9NKy-5">
          <mxGeometry y="160" width="200" height="8" as="geometry" />
        </mxCell>
        <mxCell id="EvMouN0lqne2JPCb9NKy-8" value="+ Paciente ()&lt;br style=&quot;border-color: var(--border-color);&quot;&gt;&lt;br style=&quot;border-color: var(--border-color);&quot;&gt;+ getter(): type&lt;br style=&quot;border-color: var(--border-color);&quot;&gt;&lt;br style=&quot;border-color: var(--border-color);&quot;&gt;+ setter():&amp;nbsp;" style="text;strokeColor=none;fillColor=none;align=left;verticalAlign=top;spacingLeft=4;spacingRight=4;overflow=hidden;rotatable=0;points=[[0,0.5],[1,0.5]];portConstraint=eastwest;whiteSpace=wrap;html=1;" vertex="1" parent="EvMouN0lqne2JPCb9NKy-5">
          <mxGeometry y="168" width="200" height="130" as="geometry" />
        </mxCell>
        <mxCell id="EvMouN0lqne2JPCb9NKy-13" value="Pessoa" style="swimlane;fontStyle=1;align=center;verticalAlign=top;childLayout=stackLayout;horizontal=1;startSize=26;horizontalStack=0;resizeParent=1;resizeParentMax=0;resizeLast=0;collapsible=1;marginBottom=0;whiteSpace=wrap;html=1;" vertex="1" parent="1">
          <mxGeometry x="330" y="30" width="200" height="298" as="geometry" />
        </mxCell>
        <mxCell id="EvMouN0lqne2JPCb9NKy-14" value="- nome: String&lt;br&gt;- cpf&amp;nbsp; &amp;nbsp; : Integer&lt;br&gt;- endereco: String&lt;br&gt;- dataNascimento: Date&lt;br&gt;- telefones:List&amp;lt;String&amp;gt;" style="text;strokeColor=none;fillColor=none;align=left;verticalAlign=top;spacingLeft=4;spacingRight=4;overflow=hidden;rotatable=0;points=[[0,0.5],[1,0.5]];portConstraint=eastwest;whiteSpace=wrap;html=1;" vertex="1" parent="EvMouN0lqne2JPCb9NKy-13">
          <mxGeometry y="26" width="200" height="134" as="geometry" />
        </mxCell>
        <mxCell id="EvMouN0lqne2JPCb9NKy-15" value="" style="line;strokeWidth=1;fillColor=none;align=left;verticalAlign=middle;spacingTop=-1;spacingLeft=3;spacingRight=3;rotatable=0;labelPosition=right;points=[];portConstraint=eastwest;strokeColor=inherit;" vertex="1" parent="EvMouN0lqne2JPCb9NKy-13">
          <mxGeometry y="160" width="200" height="8" as="geometry" />
        </mxCell>
        <mxCell id="EvMouN0lqne2JPCb9NKy-16" value="+ Pessoa ()&lt;br&gt;&lt;br&gt;+ getter(): type&lt;br&gt;&lt;br&gt;+ setter():&amp;nbsp;" style="text;strokeColor=none;fillColor=none;align=left;verticalAlign=top;spacingLeft=4;spacingRight=4;overflow=hidden;rotatable=0;points=[[0,0.5],[1,0.5]];portConstraint=eastwest;whiteSpace=wrap;html=1;" vertex="1" parent="EvMouN0lqne2JPCb9NKy-13">
          <mxGeometry y="168" width="200" height="130" as="geometry" />
        </mxCell>
        <mxCell id="EvMouN0lqne2JPCb9NKy-17" value="Extends" style="endArrow=block;endSize=16;endFill=0;html=1;rounded=0;exitX=0.465;exitY=-0.007;exitDx=0;exitDy=0;exitPerimeter=0;entryX=-0.015;entryY=0.4;entryDx=0;entryDy=0;entryPerimeter=0;" edge="1" parent="1" source="EvMouN0lqne2JPCb9NKy-5" target="EvMouN0lqne2JPCb9NKy-16">
          <mxGeometry width="160" relative="1" as="geometry">
            <mxPoint x="330" y="380" as="sourcePoint" />
            <mxPoint x="490" y="380" as="targetPoint" />
          </mxGeometry>
        </mxCell>
        <mxCell id="EvMouN0lqne2JPCb9NKy-18" value="Extends" style="endArrow=block;endSize=16;endFill=0;html=1;rounded=0;exitX=0.5;exitY=0;exitDx=0;exitDy=0;entryX=-0.015;entryY=0.4;entryDx=0;entryDy=0;entryPerimeter=0;" edge="1" parent="1" source="EvMouN0lqne2JPCb9NKy-1">
          <mxGeometry width="160" relative="1" as="geometry">
            <mxPoint x="513" y="468" as="sourcePoint" />
            <mxPoint x="420" y="328" as="targetPoint" />
          </mxGeometry>
        </mxCell>
        <mxCell id="EvMouN0lqne2JPCb9NKy-19" value="Extends" style="endArrow=block;endSize=16;endFill=0;html=1;rounded=0;exitX=0.5;exitY=0;exitDx=0;exitDy=0;entryX=-0.015;entryY=0.4;entryDx=0;entryDy=0;entryPerimeter=0;" edge="1" parent="1">
          <mxGeometry width="160" relative="1" as="geometry">
            <mxPoint x="680" y="470" as="sourcePoint" />
            <mxPoint x="510" y="328" as="targetPoint" />
          </mxGeometry>
        </mxCell>
        <mxCell id="EvMouN0lqne2JPCb9NKy-20" value="Medico" style="swimlane;fontStyle=1;align=center;verticalAlign=top;childLayout=stackLayout;horizontal=1;startSize=26;horizontalStack=0;resizeParent=1;resizeParentMax=0;resizeLast=0;collapsible=1;marginBottom=0;whiteSpace=wrap;html=1;" vertex="1" parent="1">
          <mxGeometry x="580" y="470" width="200" height="298" as="geometry" />
        </mxCell>
        <mxCell id="EvMouN0lqne2JPCb9NKy-21" value="&lt;br style=&quot;border-color: var(--border-color);&quot;&gt;- consultorio:List&amp;lt;Consultorio&amp;gt;&lt;br style=&quot;border-color: var(--border-color);&quot;&gt;" style="text;strokeColor=none;fillColor=none;align=left;verticalAlign=top;spacingLeft=4;spacingRight=4;overflow=hidden;rotatable=0;points=[[0,0.5],[1,0.5]];portConstraint=eastwest;whiteSpace=wrap;html=1;" vertex="1" parent="EvMouN0lqne2JPCb9NKy-20">
          <mxGeometry y="26" width="200" height="134" as="geometry" />
        </mxCell>
        <mxCell id="EvMouN0lqne2JPCb9NKy-22" value="" style="line;strokeWidth=1;fillColor=none;align=left;verticalAlign=middle;spacingTop=-1;spacingLeft=3;spacingRight=3;rotatable=0;labelPosition=right;points=[];portConstraint=eastwest;strokeColor=inherit;" vertex="1" parent="EvMouN0lqne2JPCb9NKy-20">
          <mxGeometry y="160" width="200" height="8" as="geometry" />
        </mxCell>
        <mxCell id="EvMouN0lqne2JPCb9NKy-23" value="+ Medico ()&lt;br style=&quot;border-color: var(--border-color);&quot;&gt;&lt;br style=&quot;border-color: var(--border-color);&quot;&gt;+ getter(): type&lt;br style=&quot;border-color: var(--border-color);&quot;&gt;&lt;br style=&quot;border-color: var(--border-color);&quot;&gt;+ setter():&amp;nbsp;" style="text;strokeColor=none;fillColor=none;align=left;verticalAlign=top;spacingLeft=4;spacingRight=4;overflow=hidden;rotatable=0;points=[[0,0.5],[1,0.5]];portConstraint=eastwest;whiteSpace=wrap;html=1;" vertex="1" parent="EvMouN0lqne2JPCb9NKy-20">
          <mxGeometry y="168" width="200" height="130" as="geometry" />
        </mxCell>
        <mxCell id="EvMouN0lqne2JPCb9NKy-24" value="Consultorio" style="swimlane;fontStyle=1;align=center;verticalAlign=top;childLayout=stackLayout;horizontal=1;startSize=26;horizontalStack=0;resizeParent=1;resizeParentMax=0;resizeLast=0;collapsible=1;marginBottom=0;whiteSpace=wrap;html=1;" vertex="1" parent="1">
          <mxGeometry x="290" y="800" width="200" height="298" as="geometry" />
        </mxCell>
        <mxCell id="EvMouN0lqne2JPCb9NKy-25" value="- localidade: String&lt;br&gt;- horario: String&lt;br&gt;- diasSemana:List&amp;lt;String&amp;gt;&lt;br&gt;- medico:Medico" style="text;strokeColor=none;fillColor=none;align=left;verticalAlign=top;spacingLeft=4;spacingRight=4;overflow=hidden;rotatable=0;points=[[0,0.5],[1,0.5]];portConstraint=eastwest;whiteSpace=wrap;html=1;" vertex="1" parent="EvMouN0lqne2JPCb9NKy-24">
          <mxGeometry y="26" width="200" height="134" as="geometry" />
        </mxCell>
        <mxCell id="EvMouN0lqne2JPCb9NKy-26" value="" style="line;strokeWidth=1;fillColor=none;align=left;verticalAlign=middle;spacingTop=-1;spacingLeft=3;spacingRight=3;rotatable=0;labelPosition=right;points=[];portConstraint=eastwest;strokeColor=inherit;" vertex="1" parent="EvMouN0lqne2JPCb9NKy-24">
          <mxGeometry y="160" width="200" height="8" as="geometry" />
        </mxCell>
        <mxCell id="EvMouN0lqne2JPCb9NKy-27" value="+ Consultorio()&lt;br style=&quot;border-color: var(--border-color);&quot;&gt;&lt;br style=&quot;border-color: var(--border-color);&quot;&gt;+ getter(): type&lt;br style=&quot;border-color: var(--border-color);&quot;&gt;&lt;br style=&quot;border-color: var(--border-color);&quot;&gt;+ setter():&amp;nbsp;" style="text;strokeColor=none;fillColor=none;align=left;verticalAlign=top;spacingLeft=4;spacingRight=4;overflow=hidden;rotatable=0;points=[[0,0.5],[1,0.5]];portConstraint=eastwest;whiteSpace=wrap;html=1;" vertex="1" parent="EvMouN0lqne2JPCb9NKy-24">
          <mxGeometry y="168" width="200" height="130" as="geometry" />
        </mxCell>
        <mxCell id="EvMouN0lqne2JPCb9NKy-29" value="" style="endArrow=diamondThin;endFill=0;endSize=24;html=1;rounded=0;entryX=-0.01;entryY=0.918;entryDx=0;entryDy=0;entryPerimeter=0;exitX=0.5;exitY=0;exitDx=0;exitDy=0;" edge="1" parent="1" source="EvMouN0lqne2JPCb9NKy-24" target="EvMouN0lqne2JPCb9NKy-21">
          <mxGeometry width="160" relative="1" as="geometry">
            <mxPoint x="330" y="620" as="sourcePoint" />
            <mxPoint x="490" y="620" as="targetPoint" />
            <Array as="points">
              <mxPoint x="390" y="620" />
            </Array>
          </mxGeometry>
        </mxCell>
      </root>
    </mxGraphModel>
  </diagram>
</mxfile>
